<svg width="100" height="126" xmlns="http://www.w3.org/2000/svg" clip-rule="evenodd">
 <clipPath id="_clip1">
  <rect id="svg_1" y="0.04" x="0" width="100" height="125"/>
 </clipPath>

 <g>
  <title>background</title>
  <rect fill="none" id="canvas_background" height="402" width="582" y="-1" x="-1"/>
 </g>
 <g>
  <title>Layer 1</title>
  <path fill-opacity="0.4" id="svg_3" fill="#edc0c0" d="m100,42.077c0,-16.313 -13.224,-29.537 -29.537,-29.537c-12.909,0 -28.017,0 -40.926,0c-16.313,0 -29.537,13.224 -29.537,29.537c0,12.909 0,28.017 0,40.926c0,16.313 13.224,29.537 29.537,29.537c12.909,0 28.017,0 40.926,0c16.313,0 29.537,-13.224 29.537,-29.537c0,-12.909 0,-28.017 0,-40.926z"/>
  <path id="svg_4" fill="#ffffff" fill-opacity="0.5" fill-rule="nonzero" d="m71.8,78.24l5.5,-5.8l-27.3,-25.6l-27.3,25.6l5.5,5.8l21.8,-20.4l21.8,20.4z"/>
 </g>
</svg>